<mxfile host="app.diagrams.net" agent="Mozilla/5.0 (Windows NT 10.0; Win64; x64) AppleWebKit/537.36 (KHTML, like Gecko) Chrome/130.0.0.0 Safari/537.36" version="24.8.3">
  <diagram name="Page-1" id="-dhcu6Qn_lVw85BbULP4">
    <mxGraphModel dx="1272" dy="1146" grid="1" gridSize="10" guides="1" tooltips="1" connect="1" arrows="1" fold="1" page="0" pageScale="1" pageWidth="850" pageHeight="1100" math="0" shadow="0">
      <root>
        <mxCell id="0" />
        <mxCell id="1" parent="0" />
        <mxCell id="hZkGG0CdMUdTO5pa5XvA-3" value="" style="aspect=fixed;sketch=0;html=1;dashed=0;whitespace=wrap;verticalLabelPosition=bottom;verticalAlign=top;fillColor=#2875E2;strokeColor=#ffffff;points=[[0.005,0.63,0],[0.1,0.2,0],[0.9,0.2,0],[0.5,0,0],[0.995,0.63,0],[0.72,0.99,0],[0.5,1,0],[0.28,0.99,0]];shape=mxgraph.kubernetes.icon2;kubernetesLabel=1;prIcon=sched" vertex="1" parent="1">
          <mxGeometry x="340" y="70" width="50" height="48" as="geometry" />
        </mxCell>
        <mxCell id="hZkGG0CdMUdTO5pa5XvA-6" value="" style="aspect=fixed;sketch=0;html=1;dashed=0;whitespace=wrap;verticalLabelPosition=bottom;verticalAlign=top;fillColor=#2875E2;strokeColor=#ffffff;points=[[0.005,0.63,0],[0.1,0.2,0],[0.9,0.2,0],[0.5,0,0],[0.995,0.63,0],[0.72,0.99,0],[0.5,1,0],[0.28,0.99,0]];shape=mxgraph.kubernetes.icon2;kubernetesLabel=1;prIcon=etcd" vertex="1" parent="1">
          <mxGeometry x="400" y="70" width="50" height="48" as="geometry" />
        </mxCell>
        <mxCell id="hZkGG0CdMUdTO5pa5XvA-7" value="" style="aspect=fixed;sketch=0;html=1;dashed=0;whitespace=wrap;verticalLabelPosition=bottom;verticalAlign=top;fillColor=#2875E2;strokeColor=#ffffff;points=[[0.005,0.63,0],[0.1,0.2,0],[0.9,0.2,0],[0.5,0,0],[0.995,0.63,0],[0.72,0.99,0],[0.5,1,0],[0.28,0.99,0]];shape=mxgraph.kubernetes.icon2;kubernetesLabel=1;prIcon=control_plane" vertex="1" parent="1">
          <mxGeometry x="310" y="10" width="50" height="48" as="geometry" />
        </mxCell>
        <mxCell id="hZkGG0CdMUdTO5pa5XvA-8" value="" style="aspect=fixed;sketch=0;html=1;dashed=0;whitespace=wrap;verticalLabelPosition=bottom;verticalAlign=top;fillColor=#2875E2;strokeColor=#ffffff;points=[[0.005,0.63,0],[0.1,0.2,0],[0.9,0.2,0],[0.5,0,0],[0.995,0.63,0],[0.72,0.99,0],[0.5,1,0],[0.28,0.99,0]];shape=mxgraph.kubernetes.icon2;kubernetesLabel=1;prIcon=c_m" vertex="1" parent="1">
          <mxGeometry x="280" y="70" width="50" height="48" as="geometry" />
        </mxCell>
        <mxCell id="hZkGG0CdMUdTO5pa5XvA-9" value="" style="aspect=fixed;sketch=0;html=1;dashed=0;whitespace=wrap;verticalLabelPosition=bottom;verticalAlign=top;fillColor=#2875E2;strokeColor=#ffffff;points=[[0.005,0.63,0],[0.1,0.2,0],[0.9,0.2,0],[0.5,0,0],[0.995,0.63,0],[0.72,0.99,0],[0.5,1,0],[0.28,0.99,0]];shape=mxgraph.kubernetes.icon2;kubernetesLabel=1;prIcon=api" vertex="1" parent="1">
          <mxGeometry x="220" y="70" width="50" height="48" as="geometry" />
        </mxCell>
        <mxCell id="hZkGG0CdMUdTO5pa5XvA-10" value="Virtual Network" style="rounded=0;whiteSpace=wrap;html=1;" vertex="1" parent="1">
          <mxGeometry x="120" y="130" width="470" height="30" as="geometry" />
        </mxCell>
        <mxCell id="hZkGG0CdMUdTO5pa5XvA-13" value="" style="image;aspect=fixed;html=1;points=[];align=center;fontSize=12;image=img/lib/azure2/networking/Virtual_Networks_Classic.svg;" vertex="1" parent="1">
          <mxGeometry x="276.5" y="135" width="33.5" height="20" as="geometry" />
        </mxCell>
        <mxCell id="hZkGG0CdMUdTO5pa5XvA-21" value="Node / Kubelet" style="swimlane;whiteSpace=wrap;html=1;" vertex="1" parent="1">
          <mxGeometry x="10" y="360" width="460" height="270" as="geometry" />
        </mxCell>
        <mxCell id="hZkGG0CdMUdTO5pa5XvA-20" value="" style="swimlane;startSize=0;" vertex="1" parent="hZkGG0CdMUdTO5pa5XvA-21">
          <mxGeometry x="10" y="120" width="110" height="129" as="geometry" />
        </mxCell>
        <mxCell id="hZkGG0CdMUdTO5pa5XvA-11" value="" style="aspect=fixed;sketch=0;html=1;dashed=0;whitespace=wrap;verticalLabelPosition=bottom;verticalAlign=top;fillColor=#2875E2;strokeColor=#ffffff;points=[[0.005,0.63,0],[0.1,0.2,0],[0.9,0.2,0],[0.5,0,0],[0.995,0.63,0],[0.72,0.99,0],[0.5,1,0],[0.28,0.99,0]];shape=mxgraph.kubernetes.icon2;kubernetesLabel=1;prIcon=pod" vertex="1" parent="hZkGG0CdMUdTO5pa5XvA-20">
          <mxGeometry x="10" y="22" width="50" height="48" as="geometry" />
        </mxCell>
        <mxCell id="hZkGG0CdMUdTO5pa5XvA-12" value="" style="image;sketch=0;aspect=fixed;html=1;points=[];align=center;fontSize=12;image=img/lib/mscae/Docker.svg;" vertex="1" parent="hZkGG0CdMUdTO5pa5XvA-20">
          <mxGeometry x="10" y="69" width="50" height="41" as="geometry" />
        </mxCell>
        <mxCell id="hZkGG0CdMUdTO5pa5XvA-16" value="" style="sketch=0;pointerEvents=1;shadow=0;dashed=0;html=1;strokeColor=none;fillColor=#434445;aspect=fixed;labelPosition=center;verticalLabelPosition=bottom;verticalAlign=top;align=center;outlineConnect=0;shape=mxgraph.vvd.networks;" vertex="1" parent="hZkGG0CdMUdTO5pa5XvA-20">
          <mxGeometry x="50" y="38.5" width="50" height="30.5" as="geometry" />
        </mxCell>
        <mxCell id="hZkGG0CdMUdTO5pa5XvA-23" value="" style="swimlane;startSize=0;" vertex="1" parent="hZkGG0CdMUdTO5pa5XvA-21">
          <mxGeometry x="140" y="126" width="150" height="129" as="geometry" />
        </mxCell>
        <mxCell id="hZkGG0CdMUdTO5pa5XvA-24" value="" style="aspect=fixed;sketch=0;html=1;dashed=0;whitespace=wrap;verticalLabelPosition=bottom;verticalAlign=top;fillColor=#2875E2;strokeColor=#ffffff;points=[[0.005,0.63,0],[0.1,0.2,0],[0.9,0.2,0],[0.5,0,0],[0.995,0.63,0],[0.72,0.99,0],[0.5,1,0],[0.28,0.99,0]];shape=mxgraph.kubernetes.icon2;kubernetesLabel=1;prIcon=pod" vertex="1" parent="hZkGG0CdMUdTO5pa5XvA-23">
          <mxGeometry x="10" y="9" width="50" height="48" as="geometry" />
        </mxCell>
        <mxCell id="hZkGG0CdMUdTO5pa5XvA-25" value="" style="image;sketch=0;aspect=fixed;html=1;points=[];align=center;fontSize=12;image=img/lib/mscae/Docker.svg;" vertex="1" parent="hZkGG0CdMUdTO5pa5XvA-23">
          <mxGeometry x="10" y="69" width="50" height="41" as="geometry" />
        </mxCell>
        <mxCell id="hZkGG0CdMUdTO5pa5XvA-26" value="" style="sketch=0;pointerEvents=1;shadow=0;dashed=0;html=1;strokeColor=none;fillColor=#434445;aspect=fixed;labelPosition=center;verticalLabelPosition=bottom;verticalAlign=top;align=center;outlineConnect=0;shape=mxgraph.vvd.networks;" vertex="1" parent="hZkGG0CdMUdTO5pa5XvA-23">
          <mxGeometry x="50" y="38.5" width="50" height="30.5" as="geometry" />
        </mxCell>
        <mxCell id="hZkGG0CdMUdTO5pa5XvA-28" value="" style="aspect=fixed;sketch=0;html=1;dashed=0;whitespace=wrap;verticalLabelPosition=bottom;verticalAlign=top;fillColor=#2875E2;strokeColor=#ffffff;points=[[0.005,0.63,0],[0.1,0.2,0],[0.9,0.2,0],[0.5,0,0],[0.995,0.63,0],[0.72,0.99,0],[0.5,1,0],[0.28,0.99,0]];shape=mxgraph.kubernetes.icon2;kubernetesLabel=1;prIcon=svc" vertex="1" parent="hZkGG0CdMUdTO5pa5XvA-23">
          <mxGeometry x="50" y="9" width="50" height="48" as="geometry" />
        </mxCell>
        <mxCell id="hZkGG0CdMUdTO5pa5XvA-29" value="" style="aspect=fixed;sketch=0;html=1;dashed=0;whitespace=wrap;verticalLabelPosition=bottom;verticalAlign=top;fillColor=#2875E2;strokeColor=#ffffff;points=[[0.005,0.63,0],[0.1,0.2,0],[0.9,0.2,0],[0.5,0,0],[0.995,0.63,0],[0.72,0.99,0],[0.5,1,0],[0.28,0.99,0]];shape=mxgraph.kubernetes.icon2;kubernetesLabel=1;prIcon=svc" vertex="1" parent="hZkGG0CdMUdTO5pa5XvA-21">
          <mxGeometry x="130" y="40" width="50" height="48" as="geometry" />
        </mxCell>
        <mxCell id="hZkGG0CdMUdTO5pa5XvA-4" value="" style="aspect=fixed;sketch=0;html=1;dashed=0;whitespace=wrap;verticalLabelPosition=bottom;verticalAlign=top;fillColor=#2875E2;strokeColor=#ffffff;points=[[0.005,0.63,0],[0.1,0.2,0],[0.9,0.2,0],[0.5,0,0],[0.995,0.63,0],[0.72,0.99,0],[0.5,1,0],[0.28,0.99,0]];shape=mxgraph.kubernetes.icon2;kubernetesLabel=1;prIcon=node" vertex="1" parent="hZkGG0CdMUdTO5pa5XvA-21">
          <mxGeometry x="10" y="30" width="50" height="48" as="geometry" />
        </mxCell>
        <mxCell id="hZkGG0CdMUdTO5pa5XvA-5" value="" style="aspect=fixed;sketch=0;html=1;dashed=0;whitespace=wrap;verticalLabelPosition=bottom;verticalAlign=top;fillColor=#2875E2;strokeColor=#ffffff;points=[[0.005,0.63,0],[0.1,0.2,0],[0.9,0.2,0],[0.5,0,0],[0.995,0.63,0],[0.72,0.99,0],[0.5,1,0],[0.28,0.99,0]];shape=mxgraph.kubernetes.icon2;kubernetesLabel=1;prIcon=kubelet" vertex="1" parent="hZkGG0CdMUdTO5pa5XvA-21">
          <mxGeometry x="60" y="30" width="50" height="48" as="geometry" />
        </mxCell>
        <mxCell id="hZkGG0CdMUdTO5pa5XvA-34" value="" style="aspect=fixed;sketch=0;html=1;dashed=0;whitespace=wrap;verticalLabelPosition=bottom;verticalAlign=top;fillColor=#2875E2;strokeColor=#ffffff;points=[[0.005,0.63,0],[0.1,0.2,0],[0.9,0.2,0],[0.5,0,0],[0.995,0.63,0],[0.72,0.99,0],[0.5,1,0],[0.28,0.99,0]];shape=mxgraph.kubernetes.icon2;kubernetesLabel=1;prIcon=secret" vertex="1" parent="hZkGG0CdMUdTO5pa5XvA-21">
          <mxGeometry x="60" y="88" width="50" height="48" as="geometry" />
        </mxCell>
        <mxCell id="hZkGG0CdMUdTO5pa5XvA-39" style="edgeStyle=orthogonalEdgeStyle;rounded=0;orthogonalLoop=1;jettySize=auto;html=1;exitX=0.5;exitY=1;exitDx=0;exitDy=0;exitPerimeter=0;" edge="1" parent="hZkGG0CdMUdTO5pa5XvA-21" source="hZkGG0CdMUdTO5pa5XvA-32" target="hZkGG0CdMUdTO5pa5XvA-35">
          <mxGeometry relative="1" as="geometry" />
        </mxCell>
        <mxCell id="hZkGG0CdMUdTO5pa5XvA-32" value="" style="aspect=fixed;sketch=0;html=1;dashed=0;whitespace=wrap;verticalLabelPosition=bottom;verticalAlign=top;fillColor=#2875E2;strokeColor=#ffffff;points=[[0.005,0.63,0],[0.1,0.2,0],[0.9,0.2,0],[0.5,0,0],[0.995,0.63,0],[0.72,0.99,0],[0.5,1,0],[0.28,0.99,0]];shape=mxgraph.kubernetes.icon2;kubernetesLabel=1;prIcon=vol" vertex="1" parent="hZkGG0CdMUdTO5pa5XvA-21">
          <mxGeometry x="358" y="100" width="50" height="48" as="geometry" />
        </mxCell>
        <mxCell id="hZkGG0CdMUdTO5pa5XvA-35" value="" style="sketch=0;pointerEvents=1;shadow=0;dashed=0;html=1;strokeColor=none;fillColor=#434445;aspect=fixed;labelPosition=center;verticalLabelPosition=bottom;verticalAlign=top;align=center;outlineConnect=0;shape=mxgraph.vvd.disk;" vertex="1" parent="hZkGG0CdMUdTO5pa5XvA-21">
          <mxGeometry x="365.5" y="190" width="35" height="50" as="geometry" />
        </mxCell>
        <mxCell id="hZkGG0CdMUdTO5pa5XvA-30" value="Router" style="aspect=fixed;sketch=0;html=1;dashed=0;whitespace=wrap;verticalLabelPosition=bottom;verticalAlign=top;fillColor=#2875E2;strokeColor=#ffffff;points=[[0.005,0.63,0],[0.1,0.2,0],[0.9,0.2,0],[0.5,0,0],[0.995,0.63,0],[0.72,0.99,0],[0.5,1,0],[0.28,0.99,0]];shape=mxgraph.kubernetes.icon2;kubernetesLabel=1;prIcon=ing" vertex="1" parent="1">
          <mxGeometry x="230" y="220" width="50" height="48" as="geometry" />
        </mxCell>
        <mxCell id="hZkGG0CdMUdTO5pa5XvA-36" value="" style="sketch=0;pointerEvents=1;shadow=0;dashed=0;html=1;strokeColor=none;fillColor=#434445;aspect=fixed;labelPosition=center;verticalLabelPosition=bottom;verticalAlign=top;align=center;outlineConnect=0;shape=mxgraph.vvd.service_provider_cloud_environment;" vertex="1" parent="1">
          <mxGeometry x="493.75" y="410" width="50" height="44" as="geometry" />
        </mxCell>
        <mxCell id="hZkGG0CdMUdTO5pa5XvA-40" value="" style="aspect=fixed;sketch=0;html=1;dashed=0;whitespace=wrap;verticalLabelPosition=bottom;verticalAlign=top;fillColor=#2875E2;strokeColor=#ffffff;points=[[0.005,0.63,0],[0.1,0.2,0],[0.9,0.2,0],[0.5,0,0],[0.995,0.63,0],[0.72,0.99,0],[0.5,1,0],[0.28,0.99,0]];shape=mxgraph.kubernetes.icon2;kubernetesLabel=1;prIcon=svc" vertex="1" parent="1">
          <mxGeometry x="200" y="312" width="50" height="48" as="geometry" />
        </mxCell>
        <mxCell id="hZkGG0CdMUdTO5pa5XvA-33" value="" style="aspect=fixed;sketch=0;html=1;dashed=0;whitespace=wrap;verticalLabelPosition=bottom;verticalAlign=top;fillColor=#2875E2;strokeColor=#ffffff;points=[[0.005,0.63,0],[0.1,0.2,0],[0.9,0.2,0],[0.5,0,0],[0.995,0.63,0],[0.72,0.99,0],[0.5,1,0],[0.28,0.99,0]];shape=mxgraph.kubernetes.icon2;kubernetesLabel=1;prIcon=cm" vertex="1" parent="1">
          <mxGeometry x="80" y="220" width="50" height="48" as="geometry" />
        </mxCell>
        <mxCell id="hZkGG0CdMUdTO5pa5XvA-27" value="" style="aspect=fixed;sketch=0;html=1;dashed=0;whitespace=wrap;verticalLabelPosition=bottom;verticalAlign=top;fillColor=#2875E2;strokeColor=#ffffff;points=[[0.005,0.63,0],[0.1,0.2,0],[0.9,0.2,0],[0.5,0,0],[0.995,0.63,0],[0.72,0.99,0],[0.5,1,0],[0.28,0.99,0]];shape=mxgraph.kubernetes.icon2;kubernetesLabel=1;prIcon=svc" vertex="1" parent="1">
          <mxGeometry x="140" y="220" width="50" height="48" as="geometry" />
        </mxCell>
        <mxCell id="hZkGG0CdMUdTO5pa5XvA-41" value="&lt;b&gt;&lt;font style=&quot;font-size: 17px;&quot;&gt;Persistence / Data Access Layer&lt;/font&gt;&lt;/b&gt;" style="rounded=1;whiteSpace=wrap;html=1;strokeWidth=2;fillWeight=4;hachureGap=8;hachureAngle=45;fillColor=#CCF6FF;sketch=1;" vertex="1" parent="1">
          <mxGeometry x="791" y="268" width="310" height="30" as="geometry" />
        </mxCell>
        <mxCell id="hZkGG0CdMUdTO5pa5XvA-43" value="" style="shape=image;verticalLabelPosition=bottom;labelBackgroundColor=default;verticalAlign=top;aspect=fixed;imageAspect=0;image=https://bluecatnetworks.com/wp-content/uploads/2022/08/The-7-layers-of-the-OSI-model_rev1-1.jpg;" vertex="1" parent="1">
          <mxGeometry x="1210" y="340" width="423" height="455.63" as="geometry" />
        </mxCell>
        <mxCell id="hZkGG0CdMUdTO5pa5XvA-48" value="&lt;b&gt;&lt;font style=&quot;font-size: 17px;&quot;&gt;API / MQ&lt;/font&gt;&lt;/b&gt;" style="rounded=1;whiteSpace=wrap;html=1;strokeWidth=2;fillWeight=4;hachureGap=8;hachureAngle=45;fillColor=#CCF6FF;sketch=1;" vertex="1" parent="1">
          <mxGeometry x="791" y="118" width="310" height="30" as="geometry" />
        </mxCell>
        <mxCell id="hZkGG0CdMUdTO5pa5XvA-49" value="&lt;b&gt;&lt;font style=&quot;font-size: 17px;&quot;&gt;Presentation / UX Layer&lt;/font&gt;&lt;/b&gt;" style="rounded=1;whiteSpace=wrap;html=1;strokeWidth=2;fillWeight=4;hachureGap=8;hachureAngle=45;fillColor=#CCF6FF;sketch=1;" vertex="1" parent="1">
          <mxGeometry x="791" y="-140" width="310" height="30" as="geometry" />
        </mxCell>
        <mxCell id="hZkGG0CdMUdTO5pa5XvA-50" value="&lt;b&gt;&lt;font style=&quot;font-size: 17px;&quot;&gt;Business Logic Layer&lt;/font&gt;&lt;/b&gt;" style="rounded=1;whiteSpace=wrap;html=1;strokeWidth=2;fillWeight=4;hachureGap=8;hachureAngle=45;fillColor=#CCF6FF;sketch=1;" vertex="1" parent="1">
          <mxGeometry x="791" y="170" width="310" height="30" as="geometry" />
        </mxCell>
        <mxCell id="hZkGG0CdMUdTO5pa5XvA-51" value="&lt;b&gt;&lt;font style=&quot;font-size: 17px;&quot;&gt;Session Layer&lt;/font&gt;&lt;/b&gt;" style="rounded=1;whiteSpace=wrap;html=1;strokeWidth=2;fillWeight=4;hachureGap=8;hachureAngle=45;fillColor=#CCF6FF;sketch=1;" vertex="1" parent="1">
          <mxGeometry x="791" y="28" width="310" height="30" as="geometry" />
        </mxCell>
        <mxCell id="hZkGG0CdMUdTO5pa5XvA-52" value="&lt;b&gt;&lt;font style=&quot;font-size: 17px;&quot;&gt;Database Layer&lt;/font&gt;&lt;/b&gt;" style="rounded=1;whiteSpace=wrap;html=1;strokeWidth=2;fillWeight=4;hachureGap=8;hachureAngle=45;fillColor=#CCF6FF;sketch=1;" vertex="1" parent="1">
          <mxGeometry x="791" y="330" width="310" height="30" as="geometry" />
        </mxCell>
        <mxCell id="hZkGG0CdMUdTO5pa5XvA-56" value="" style="group" vertex="1" connectable="0" parent="1">
          <mxGeometry x="890" y="377.8" width="117.5" height="126.19999999999999" as="geometry" />
        </mxCell>
        <mxCell id="hZkGG0CdMUdTO5pa5XvA-55" value="" style="dashed=0;outlineConnect=0;html=1;align=center;labelPosition=center;verticalLabelPosition=bottom;verticalAlign=top;shape=mxgraph.webicons.mongodb;gradientColor=#DFDEDE" vertex="1" parent="hZkGG0CdMUdTO5pa5XvA-56">
          <mxGeometry x="8.600000000000023" width="102.4" height="102.4" as="geometry" />
        </mxCell>
        <mxCell id="hZkGG0CdMUdTO5pa5XvA-37" value="" style="sketch=0;pointerEvents=1;shadow=0;dashed=0;html=1;strokeColor=none;fillColor=#434445;aspect=fixed;labelPosition=center;verticalLabelPosition=bottom;verticalAlign=top;align=center;outlineConnect=0;shape=mxgraph.vvd.storage;" vertex="1" parent="hZkGG0CdMUdTO5pa5XvA-56">
          <mxGeometry x="80" y="76.19999999999999" width="37.5" height="50" as="geometry" />
        </mxCell>
        <mxCell id="hZkGG0CdMUdTO5pa5XvA-42" value="" style="sketch=0;pointerEvents=1;shadow=0;dashed=0;html=1;strokeColor=none;fillColor=#434445;aspect=fixed;labelPosition=center;verticalLabelPosition=bottom;verticalAlign=top;align=center;outlineConnect=0;shape=mxgraph.vvd.storage;" vertex="1" parent="hZkGG0CdMUdTO5pa5XvA-56">
          <mxGeometry y="76.19999999999999" width="37.5" height="50" as="geometry" />
        </mxCell>
        <mxCell id="hZkGG0CdMUdTO5pa5XvA-57" value="" style="dashed=0;outlineConnect=0;html=1;align=center;labelPosition=center;verticalLabelPosition=bottom;verticalAlign=top;shape=mxgraph.webicons.mongodb;gradientColor=#DFDEDE" vertex="1" parent="1">
          <mxGeometry x="1328" y="210" width="102.4" height="102.4" as="geometry" />
        </mxCell>
        <mxCell id="hZkGG0CdMUdTO5pa5XvA-60" value="" style="group" vertex="1" connectable="0" parent="1">
          <mxGeometry x="1300" y="-195" width="180" height="100" as="geometry" />
        </mxCell>
        <mxCell id="hZkGG0CdMUdTO5pa5XvA-53" value="" style="fontColor=#0066CC;verticalAlign=top;verticalLabelPosition=bottom;labelPosition=center;align=center;html=1;outlineConnect=0;fillColor=#CCCCCC;strokeColor=#6881B3;gradientColor=none;gradientDirection=north;strokeWidth=2;shape=mxgraph.networks.pc;" vertex="1" parent="hZkGG0CdMUdTO5pa5XvA-60">
          <mxGeometry y="15" width="100" height="70" as="geometry" />
        </mxCell>
        <mxCell id="hZkGG0CdMUdTO5pa5XvA-54" value="" style="fontColor=#0066CC;verticalAlign=top;verticalLabelPosition=bottom;labelPosition=center;align=center;html=1;outlineConnect=0;fillColor=#CCCCCC;strokeColor=#6881B3;gradientColor=none;gradientDirection=north;strokeWidth=2;shape=mxgraph.networks.mobile;" vertex="1" parent="hZkGG0CdMUdTO5pa5XvA-60">
          <mxGeometry x="130" width="50" height="100" as="geometry" />
        </mxCell>
        <mxCell id="hZkGG0CdMUdTO5pa5XvA-58" value="" style="sketch=0;pointerEvents=1;shadow=0;dashed=0;html=1;strokeColor=none;fillColor=#434445;aspect=fixed;labelPosition=center;verticalLabelPosition=bottom;verticalAlign=top;align=center;outlineConnect=0;shape=mxgraph.vvd.app;" vertex="1" parent="hZkGG0CdMUdTO5pa5XvA-60">
          <mxGeometry x="140" y="35" width="30" height="30" as="geometry" />
        </mxCell>
        <mxCell id="hZkGG0CdMUdTO5pa5XvA-59" value="" style="sketch=0;pointerEvents=1;shadow=0;dashed=0;html=1;strokeColor=none;fillColor=#434445;aspect=fixed;labelPosition=center;verticalLabelPosition=bottom;verticalAlign=top;align=center;outlineConnect=0;shape=mxgraph.vvd.app;" vertex="1" parent="hZkGG0CdMUdTO5pa5XvA-60">
          <mxGeometry x="44" y="27" width="30" height="30" as="geometry" />
        </mxCell>
        <mxCell id="hZkGG0CdMUdTO5pa5XvA-61" value="" style="dashed=0;outlineConnect=0;html=1;align=center;labelPosition=center;verticalLabelPosition=bottom;verticalAlign=top;shape=mxgraph.webicons.html5;gradientColor=#DFDEDE" vertex="1" parent="1">
          <mxGeometry x="791" y="-95" width="102.4" height="102.4" as="geometry" />
        </mxCell>
      </root>
    </mxGraphModel>
  </diagram>
</mxfile>
